<svg width="115" height="25" viewBox="0 0 115 25" fill="none" xmlns="http://www.w3.org/2000/svg">
<path d="M2.16 22V5.2H5.352L10.008 15.832L14.592 5.2H17.856V22H15.576V8.104L11.088 18.208H8.832L4.32 8.104V22H2.16ZM29.2316 22.288C27.2956 22.288 25.7756 21.712 24.6716 20.56C23.5676 19.408 23.0156 17.76 23.0156 15.616V5.2H25.2956V15.256C25.2956 16.856 25.6236 18.096 26.2796 18.976C26.9356 19.856 27.9196 20.296 29.2316 20.296C30.5916 20.296 31.6076 19.872 32.2796 19.024C32.9516 18.16 33.2876 16.904 33.2876 15.256V5.2H35.4956V15.52C35.4956 16.928 35.2316 18.144 34.7036 19.168C34.1916 20.176 33.4636 20.952 32.5196 21.496C31.5916 22.024 30.4956 22.288 29.2316 22.288ZM39.4538 22V20.224L48.3818 7.168H39.8618V5.2H50.9978V6.928L42.0698 19.984H51.3338V22H39.4538ZM55.6584 22V5.2H57.9384V19.96H65.6424V22H55.6584ZM75.1153 22.288C73.8673 22.288 72.7553 22.064 71.7793 21.616C70.8033 21.152 69.9713 20.528 69.2833 19.744C68.6113 18.944 68.0913 18.016 67.7233 16.96C67.3713 15.904 67.1953 14.776 67.1953 13.576C67.1953 11.928 67.5073 10.456 68.1313 9.16C68.7713 7.848 69.6833 6.816 70.8673 6.064C72.0513 5.296 73.4673 4.912 75.1153 4.912C76.3473 4.912 77.4513 5.136 78.4273 5.584C79.4193 6.032 80.2593 6.656 80.9473 7.456C81.6353 8.256 82.1553 9.176 82.5073 10.216C82.8753 11.256 83.0593 12.376 83.0593 13.576C83.0593 14.776 82.8753 15.904 82.5073 16.96C82.1553 18.016 81.6353 18.944 80.9473 19.744C80.2593 20.528 79.4273 21.152 78.4513 21.616C77.4753 22.064 76.3633 22.288 75.1153 22.288ZM75.1153 20.32C76.3473 20.32 77.3793 20.024 78.2113 19.432C79.0433 18.84 79.6673 18.04 80.0833 17.032C80.5153 16.008 80.7313 14.856 80.7313 13.576C80.7313 12.712 80.6033 11.88 80.3473 11.08C80.0913 10.28 79.7233 9.568 79.2433 8.944C78.7633 8.304 78.1713 7.8 77.4673 7.432C76.7793 7.064 75.9953 6.88 75.1153 6.88C73.9473 6.88 72.9393 7.176 72.0913 7.768C71.2593 8.36 70.6193 9.16 70.1713 10.168C69.7393 11.176 69.5233 12.312 69.5233 13.576C69.5233 14.44 69.6433 15.28 69.8833 16.096C70.1393 16.896 70.5073 17.616 70.9873 18.256C71.4673 18.896 72.0513 19.4 72.7393 19.768C73.4433 20.136 74.2353 20.32 75.1153 20.32ZM87.6131 22V5.2H97.5731V7.168H89.8931V12.304H96.3011V14.176H89.8931V22H87.6131ZM101.657 22V5.2H111.617V7.168H103.937V12.304H110.345V14.176H103.937V22H101.657Z" fill="#A0148E"/>
</svg>
